<svg width="18" height="21" viewBox="0 0 18 21" fill="none" xmlns="http://www.w3.org/2000/svg">
<path d="M16.55 20.9181C16.393 20.9181 16.238 20.8681 16.108 20.7741L8.64999 15.3461L1.192 20.7761C0.964001 20.9401 0.661988 20.9661 0.409988 20.8361C0.159988 20.7091 0 20.4511 0 20.1691V3.01807C0 1.77807 1.01 0.768066 2.25 0.768066H15.048C16.288 0.768066 17.298 1.77807 17.298 3.01807V20.1681C17.298 20.4501 17.14 20.7081 16.888 20.8361C16.782 20.8911 16.665 20.9181 16.548 20.9181H16.55ZM8.64999 13.6681C8.80499 13.6681 8.96 13.7161 9.09 13.8121L15.8 18.6951V3.01807C15.8 2.60607 15.463 2.26807 15.05 2.26807H2.25C1.837 2.26807 1.5 2.60607 1.5 3.01807V18.6951L8.20999 13.8121C8.33999 13.7161 8.49499 13.6681 8.64999 13.6681Z" fill="black"/>
</svg>
