<svg width="24" height="24" viewBox="0 0 24 24" fill="none" xmlns="http://www.w3.org/2000/svg">
<path d="M22.2085 6.20181H17.6235L18.0575 1.21781C18.0995 0.73714 17.7425 0.313644 17.2618 0.270477C16.7753 0.235477 16.3565 0.585476 16.3145 1.06731L15.8677 6.20063H8.49433L8.92599 1.21896C8.96916 0.73713 8.61099 0.313644 8.13266 0.270477C7.64266 0.235477 7.22616 0.585476 7.18416 1.06731L6.73849 6.20063H2.12083C1.63783 6.20063 1.24583 6.5938 1.24583 7.07563C1.24583 7.55747 1.63783 7.95063 2.12083 7.95063H6.58683L5.94516 15.3321H1.2085C0.725496 15.3321 0.333496 15.7241 0.333496 16.2071C0.333496 16.6901 0.725496 17.0821 1.2085 17.0821H5.7935L5.35949 22.0661C5.31749 22.5468 5.67449 22.9703 6.15516 23.0135L6.23216 23.017C6.68133 23.017 7.06283 22.6728 7.1025 22.2166L7.54933 17.0833H14.9227L14.491 22.065C14.449 22.5468 14.806 22.9703 15.2867 23.0135L15.3637 23.017C15.8128 23.017 16.1943 22.6728 16.234 22.2166L16.6797 17.0833H21.2962C21.778 17.0833 22.1712 16.6901 22.1712 16.2083C22.1712 15.7265 21.778 15.3333 21.2962 15.3333H16.8302L17.4718 7.95181H22.2085C22.6915 7.95181 23.0835 7.55981 23.0835 7.07681C23.0835 6.59381 22.6915 6.20181 22.2085 6.20181ZM15.0743 15.3321H7.701L8.34266 7.95181H15.716L15.0743 15.3321Z" fill="black"/>
</svg>
