<svg width="26" height="27" viewBox="0 0 26 27" fill="none" xmlns="http://www.w3.org/2000/svg">
<path d="M17.9582 11.4347C16.8323 11.4347 15.9165 12.3529 15.9165 13.4764C15.9165 14.5999 16.8312 15.5181 17.9582 15.5181C19.0828 15.5181 19.9998 14.6011 19.9998 13.4764C19.9998 12.3517 19.0828 11.4347 17.9582 11.4347ZM17.9582 14.3514C17.4752 14.3514 17.0832 13.9594 17.0832 13.4764C17.0832 12.9946 17.4763 12.6014 17.9582 12.6014C18.44 12.6014 18.8332 12.9934 18.8332 13.4764C18.8332 13.9582 18.4412 14.3514 17.9582 14.3514ZM12.7082 11.4347C11.5812 11.4347 10.6665 12.3529 10.6665 13.4764C10.6665 14.5999 11.5823 15.5181 12.7082 15.5181C13.834 15.5181 14.7498 14.6011 14.7498 13.4764C14.7498 12.3517 13.8352 11.4347 12.7082 11.4347ZM12.7082 14.3514C12.2252 14.3514 11.8332 13.9594 11.8332 13.4764C11.8332 12.9946 12.2263 12.6014 12.7082 12.6014C13.19 12.6014 13.5832 12.9934 13.5832 13.4764C13.5832 13.9582 13.1912 14.3514 12.7082 14.3514ZM7.45817 11.4347C6.33234 11.4347 5.4165 12.3529 5.4165 13.4764C5.4165 14.5999 6.33234 15.5181 7.45817 15.5181C8.58284 15.5181 9.49984 14.6011 9.49984 13.4764C9.49984 12.3517 8.58167 11.4347 7.45817 11.4347ZM7.45817 14.3514C6.97517 14.3514 6.58317 13.9594 6.58317 13.4764C6.58317 12.9946 6.97634 12.6014 7.45817 12.6014C7.94 12.6014 8.33317 12.9934 8.33317 13.4764C8.33317 13.9582 7.94117 14.3514 7.45817 14.3514Z" fill="black"/>
<path d="M12.7082 26.0181C5.79217 26.0181 0.166504 20.3924 0.166504 13.4764C0.166504 6.56039 5.79217 0.934723 12.7082 0.934723C19.6242 0.934723 25.2498 6.56039 25.2498 13.4764C25.2498 20.3924 19.6242 26.0181 12.7082 26.0181ZM12.7082 2.68472C6.75817 2.68472 1.9165 7.52639 1.9165 13.4764C1.9165 19.4264 6.75817 24.2681 12.7082 24.2681C18.6582 24.2681 23.4998 19.4264 23.4998 13.4764C23.4998 7.52639 18.6582 2.68472 12.7082 2.68472Z" fill="black"/>
</svg>
