<svg width="17" height="21" viewBox="0 0 17 21" fill="none" xmlns="http://www.w3.org/2000/svg">
<path d="M8.35098 10.16C9.70598 10.16 11.223 10.01 12.191 8.904C13.005 7.974 13.269 6.536 12.997 4.512C12.617 1.687 10.88 0 8.35098 0C5.82198 0 4.08498 1.687 3.70498 4.514C3.43298 6.536 3.69698 7.974 4.51098 8.904C5.47898 10.011 6.99598 10.16 8.35098 10.16ZM5.19098 4.712C5.35298 3.512 5.97798 1.5 8.35098 1.5C10.724 1.5 11.349 3.513 11.511 4.712C11.718 6.262 11.568 7.339 11.061 7.917C10.606 8.437 9.79498 8.66 8.35098 8.66C6.90698 8.66 6.09598 8.437 5.64098 7.917C5.13398 7.339 4.98398 6.261 5.19098 4.712ZM16.631 17.58C15.754 14.054 12.349 11.59 8.35098 11.59C4.35298 11.59 0.94798 14.054 0.0709801 17.58C-0.10102 18.272 0.0429767 18.98 0.465977 19.52C0.873977 20.04 1.50598 20.34 2.19898 20.34H14.503C15.196 20.34 15.828 20.04 16.236 19.52C16.66 18.98 16.803 18.273 16.63 17.58H16.631ZM15.055 18.596C14.929 18.756 14.739 18.842 14.503 18.842H2.19898C1.96398 18.842 1.77298 18.757 1.64698 18.596C1.50998 18.422 1.46698 18.184 1.52698 17.942C2.23698 15.087 5.04398 13.092 8.35098 13.092C11.658 13.092 14.465 15.086 15.175 17.942C15.235 18.184 15.192 18.422 15.055 18.596Z" fill="black"/>
</svg>
