<svg width="24" height="24" viewBox="0 0 24 24" fill="none" xmlns="http://www.w3.org/2000/svg">
<path d="M23.3142 17.0624C23.2909 17.0438 20.8175 15.1491 20.8607 10.0274C20.884 7.07342 19.9134 4.44841 18.1225 2.63658C16.5184 1.01141 14.3461 0.113077 12.0069 0.10141H11.9917C9.65373 0.113077 7.48139 1.01142 5.87606 2.63776C4.08639 4.44959 3.1134 7.07342 3.13906 10.0274C3.18223 15.0791 0.782392 16.9889 0.686725 17.0624C0.383392 17.2876 0.259726 17.6808 0.377559 18.0401C0.496559 18.3994 0.832548 18.6409 1.20821 18.6409H6.94823C7.06723 21.3359 9.27805 23.4943 11.9999 23.4943C14.7217 23.4943 16.9302 21.3359 17.0481 18.6409H22.7904C23.1661 18.6409 23.502 18.4006 23.6187 18.0413C23.7389 17.6831 23.6152 17.2887 23.3119 17.0636L23.3142 17.0624ZM12.0011 21.7407C10.2452 21.7407 8.81605 20.3676 8.70172 18.6398H15.3004C15.1837 20.3664 13.7569 21.7431 12.0011 21.7431V21.7407ZM3.11106 16.8898C3.9744 15.5691 4.91706 13.3571 4.88906 10.0111C4.86806 7.49108 5.64039 5.36542 7.12089 3.86625C8.39606 2.57475 10.1309 1.85958 12.0011 1.85141C13.8712 1.86074 15.6025 2.57476 16.8777 3.86742C18.3594 5.36659 19.1329 7.49109 19.1119 10.0123C19.0839 13.3583 20.0277 15.5714 20.891 16.8909H3.11106V16.8898Z" fill="black"/>
</svg>
