<svg width="20" height="19" viewBox="0 0 20 19" fill="none" xmlns="http://www.w3.org/2000/svg">
<path d="M17.25 0.768066H2.75C1.233 0.768066 0 2.00207 0 3.52007V16.0151C0 17.5331 1.233 18.7681 2.75 18.7681H17.25C18.767 18.7681 20 17.5331 20 16.0151V3.52007C20 2.00207 18.767 0.768066 17.25 0.768066ZM2.75 2.26807H17.25C17.94 2.26807 18.5 2.82807 18.5 3.51807V4.23206L10.45 9.59906C10.177 9.77906 9.824 9.78106 9.55 9.59706L1.5 4.23206V3.51807C1.5 2.82807 2.06 2.26807 2.75 2.26807ZM17.25 17.2661H2.75C2.06 17.2661 1.5 16.7061 1.5 16.0161V5.99007L8.74001 10.8201C9.12301 11.0761 9.562 11.2041 10 11.2041C10.44 11.2041 10.877 11.0761 11.26 10.8211L18.5 5.99106V16.0131C18.5 16.7031 17.94 17.2631 17.25 17.2631V17.2661Z" fill="black"/>
</svg>
