<svg width="17" height="4" viewBox="0 0 17 4" fill="none" xmlns="http://www.w3.org/2000/svg">
<path d="M3.92308 2C3.92308 3.10457 3.04487 4 1.96154 4C0.878211 4 0 3.10457 0 2C0 0.895431 0.878211 0 1.96154 0C3.04487 0 3.92308 0.895431 3.92308 2Z" fill="black"/>
<path d="M10.4615 2C10.4615 3.10457 9.58333 4 8.5 4C7.41667 4 6.53846 3.10457 6.53846 2C6.53846 0.895431 7.41667 0 8.5 0C9.58333 0 10.4615 0.895431 10.4615 2Z" fill="black"/>
<path d="M17 2C17 3.10457 16.1218 4 15.0385 4C13.9551 4 13.0769 3.10457 13.0769 2C13.0769 0.895431 13.9551 0 15.0385 0C16.1218 0 17 0.895431 17 2Z" fill="black"/>
</svg>
